<?xml version="1.0" encoding="UTF-8"?>
<svg xmlns="http://www.w3.org/2000/svg" viewBox="0 0 1200 630" role="img" aria-labelledby="title desc">
  <title id="title">Kino Barn</title>
  <desc id="desc">Barnefilmer i Verdal og Steinkjer</desc>
  <defs>
    <linearGradient id="bg" x1="0" y1="0" x2="1" y2="1">
      <stop offset="0%" stop-color="#176b5f"/>
      <stop offset="100%" stop-color="#0d1f34"/>
    </linearGradient>
    <linearGradient id="panel" x1="0" y1="0" x2="1" y2="1">
      <stop offset="0%" stop-color="#ffffff" stop-opacity="0.18"/>
      <stop offset="100%" stop-color="#ffffff" stop-opacity="0.08"/>
    </linearGradient>
    <linearGradient id="accent" x1="0" y1="0" x2="1" y2="1">
      <stop offset="0%" stop-color="#f9d66c"/>
      <stop offset="100%" stop-color="#ff6b6b"/>
    </linearGradient>
  </defs>
  <rect width="1200" height="630" fill="url(#bg)"/>
  <circle cx="1040" cy="100" r="210" fill="#f9d66c" opacity="0.14"/>
  <circle cx="960" cy="544" r="270" fill="#ff6b6b" opacity="0.12"/>
  <path d="M0 470 C180 410, 330 540, 520 486 S900 400, 1200 500 L1200 630 L0 630 Z" fill="rgba(255,255,255,0.05)"/>
  <path d="M0 120 C160 30, 300 46, 432 92" fill="none" stroke="rgba(255,255,255,0.18)" stroke-width="2" stroke-linecap="round"/>
  <g transform="translate(72,78)">
    <rect x="0" y="0" width="472" height="474" rx="34" fill="url(#panel)" stroke="rgba(255,255,255,0.18)"/>
    <rect x="28" y="28" width="188" height="34" rx="17" fill="rgba(255,255,255,0.11)" stroke="rgba(255,255,255,0.18)"/>
    <text x="122" y="51" text-anchor="middle" fill="#effffb" font-size="14" font-weight="800" letter-spacing="1.4">FILM OG TIDER</text>
    <text x="28" y="132" fill="#f7fffd" font-size="70" font-weight="900" letter-spacing="-1.6">Kino Barn</text>
    <text x="28" y="196" fill="#ecfffb" font-size="28" font-weight="700">Barnefilmer i Verdal og Steinkjer</text>
    <text x="28" y="248" fill="rgba(247,255,253,0.78)" font-size="17" font-weight="500">Nok struktur til å være nyttig.</text>
    <text x="28" y="274" fill="rgba(247,255,253,0.78)" font-size="17" font-weight="500">Litt mer ro til å lese det som faktisk betyr noe.</text>
    <g transform="translate(28,346)">
      <g transform="translate(28,0)"><rect x="0" y="0" rx="16" width="114" height="32" fill="rgba(255,255,255,0.09)" stroke="rgba(255,255,255,0.16)"/><text x="57" y="21" text-anchor="middle" fill="#f7fffd" font-size="14" font-weight="700" letter-spacing="0.2">Barn</text></g>
      <g transform="translate(154,0)"><rect x="0" y="0" rx="16" width="114" height="32" fill="rgba(255,255,255,0.09)" stroke="rgba(255,255,255,0.16)"/><text x="57" y="21" text-anchor="middle" fill="#f7fffd" font-size="14" font-weight="700" letter-spacing="0.2">Verdal</text></g>
      <g transform="translate(280,0)"><rect x="0" y="0" rx="16" width="114" height="32" fill="rgba(255,255,255,0.09)" stroke="rgba(255,255,255,0.16)"/><text x="57" y="21" text-anchor="middle" fill="#f7fffd" font-size="14" font-weight="700" letter-spacing="0.2">Steinkjer</text></g>
    </g>
  </g>
  <g transform="translate(654,96)">
    <rect x="0" y="0" width="474" height="438" rx="38" fill="rgba(255,255,255,0.08)" stroke="rgba(255,255,255,0.17)"/>
    <rect x="24" y="24" width="124" height="30" rx="15" fill="rgba(255,255,255,0.10)" stroke="rgba(255,255,255,0.18)"/>
    <text x="86" y="44" text-anchor="middle" fill="#effffb" font-size="13" font-weight="800" letter-spacing="0.9">Shiny app</text>
    <g transform="translate(66,84)">
    <rect x="0" y="0" width="360" height="296" rx="28" fill="rgba(255,255,255,0.06)" stroke="rgba(255,255,255,0.14)"/>
    <text x="24" y="40" fill="#f7fffd" font-size="20" font-weight="800">Kveldens valg</text>
    <g transform="translate(28,64)">
      <rect x="0" y="0" width="210" height="166" rx="24" fill="rgba(255,255,255,0.08)" stroke="rgba(255,255,255,0.14)"/>
      <rect x="18" y="18" width="174" height="130" rx="18" fill="#0d1f34" stroke="#f9d66c" stroke-width="4"/>
      <polygon points="88,50 88,108 132,79" fill="#f9d66c"/>
      <circle cx="50" cy="40" r="8" fill="#ff6b6b"/>
      <circle cx="160" cy="40" r="8" fill="#ff6b6b"/>
      <circle cx="50" cy="120" r="8" fill="#ff6b6b"/>
      <circle cx="160" cy="120" r="8" fill="#ff6b6b"/>
      <path d="M22 0 V166" stroke="rgba(255,255,255,0.18)" stroke-width="4" stroke-dasharray="10 10"/>
      <path d="M188 0 V166" stroke="rgba(255,255,255,0.18)" stroke-width="4" stroke-dasharray="10 10"/>
    </g>
    <g transform="translate(250,66)">
      <path d="M34 38 C34 14, 58 8, 72 22 C82 8, 106 14, 106 38 C106 64, 74 82, 74 82 C74 82, 34 64, 34 38Z" fill="#f9d66c"/>
      <path d="M34 38 L106 38" stroke="#ff6b6b" stroke-width="6" stroke-linecap="round"/>
      <path d="M42 92 H98" stroke="#f7fffd" stroke-width="5" stroke-linecap="round"/>
      <text x="70" y="126" text-anchor="middle" fill="#f7fffd" font-size="16" font-weight="800">Popcorn</text>
      <text x="70" y="148" text-anchor="middle" fill="rgba(247,255,253,0.78)" font-size="12">og premierer</text>
      <rect x="8" y="170" width="124" height="40" rx="14" fill="rgba(255,255,255,0.08)" stroke="rgba(255,255,255,0.15)"/>
      <text x="70" y="195" text-anchor="middle" fill="#f7fffd" font-size="16" font-weight="800">Familiefilm</text>
    </g>
  </g>
  </g>
</svg>