<?xml version="1.0" encoding="UTF-8"?>
<svg xmlns="http://www.w3.org/2000/svg" viewBox="0 0 1200 630" role="img" aria-labelledby="title desc">
  <title id="title">Kino Barn</title>
  <desc id="desc">Barnefilmer i Verdal og Steinkjer</desc>
  <defs>
    <linearGradient id="bg" x1="0" y1="0" x2="1" y2="1">
      <stop offset="0%" stop-color="#176b5f"/>
      <stop offset="100%" stop-color="#0d1f34"/>
    </linearGradient>
    <linearGradient id="panel" x1="0" y1="0" x2="1" y2="1">
      <stop offset="0%" stop-color="#ffffff" stop-opacity="0.14"/>
      <stop offset="100%" stop-color="#ffffff" stop-opacity="0.06"/>
    </linearGradient>
    <linearGradient id="accent" x1="0" y1="0" x2="1" y2="1">
      <stop offset="0%" stop-color="#f9d66c"/>
      <stop offset="100%" stop-color="#ff6b6b"/>
    </linearGradient>
  </defs>
  <rect width="1200" height="630" fill="url(#bg)"/>
  <circle cx="1040" cy="100" r="220" fill="#f9d66c" opacity="0.14"/>
  <circle cx="980" cy="548" r="300" fill="#ff6b6b" opacity="0.11"/>
  <path d="M0 470 C190 395, 340 560, 540 492 S920 390, 1200 500 L1200 630 L0 630 Z" fill="rgba(255,255,255,0.05)"/>
  <g transform="translate(68,70)">
    <rect width="500" height="490" rx="36" fill="url(#panel)" stroke="rgba(255,255,255,0.16)"/>
    <rect x="30" y="28" width="200" height="34" rx="17" fill="rgba(255,255,255,0.11)" stroke="rgba(255,255,255,0.16)"/>
    <text x="130" y="51" text-anchor="middle" fill="#f5fffe" font-size="14" font-weight="800" letter-spacing="1.3">FILM OG TIDER</text>
    <text x="30" y="126" fill="#f7fffd" font-size="66" font-weight="900" letter-spacing="-1.8">Kino Barn</text>
    <text x="30" y="186" fill="#ecfffb" font-size="27" font-weight="700">Oversikt over barne- og familiefilm</text>
    <text x="30" y="226" fill="rgba(247,255,253,0.82)" font-size="18" font-weight="500">Dato, klokkeslett, sal og korte omtaler samlet i én enkel visning.</text>
    <g transform="translate(30,314)">
      <g transform="translate(0,0)"><rect x="0" y="0" rx="16" width="126" height="34" fill="rgba(255,255,255,0.08)" stroke="rgba(255,255,255,0.16)"/><text x="63" y="22" text-anchor="middle" fill="#f7fffd" font-size="14" font-weight="700">Barn</text></g>
      <g transform="translate(138,0)"><rect x="0" y="0" rx="16" width="126" height="34" fill="rgba(255,255,255,0.08)" stroke="rgba(255,255,255,0.16)"/><text x="63" y="22" text-anchor="middle" fill="#f7fffd" font-size="14" font-weight="700">Verdal</text></g>
      <g transform="translate(276,0)"><rect x="0" y="0" rx="16" width="126" height="34" fill="rgba(255,255,255,0.08)" stroke="rgba(255,255,255,0.16)"/><text x="63" y="22" text-anchor="middle" fill="#f7fffd" font-size="14" font-weight="700">Steinkjer</text></g>
    </g>
  </g>
  <g transform="translate(636,82)">
    <rect width="498" height="466" rx="40" fill="rgba(255,255,255,0.07)" stroke="rgba(255,255,255,0.15)"/>
    <rect x="26" y="24" width="128" height="30" rx="15" fill="rgba(255,255,255,0.1)" stroke="rgba(255,255,255,0.16)"/>
    <text x="90" y="44" text-anchor="middle" fill="#f7fffd" font-size="13" font-weight="800">Shiny app</text>
    <g transform="translate(40,72)">
      <rect x="0" y="0" width="418" height="324" rx="28" fill="rgba(255,255,255,0.05)" stroke="rgba(255,255,255,0.14)"/>
      <g transform="translate(18,26)">
        <rect x="0" y="0" width="250" height="166" rx="24" fill="#0d1f34" stroke="#f9d66c" stroke-width="5"/>
        <rect x="18" y="18" width="214" height="130" rx="18" fill="rgba(255,255,255,0.04)" stroke="rgba(255,255,255,0.18)"/>
        <polygon points="104,48 104,104 152,76" fill="#f9d66c"/>
        <circle cx="56" cy="40" r="8" fill="#ff6b6b"/>
        <circle cx="194" cy="40" r="8" fill="#ff6b6b"/>
        <circle cx="56" cy="122" r="8" fill="#ff6b6b"/>
        <circle cx="194" cy="122" r="8" fill="#ff6b6b"/>
      </g>
      <g transform="translate(286,22)">
        <path d="M36 38 C36 18, 56 8, 72 22 C84 8, 104 18, 104 38 C104 60, 72 84, 72 84 C72 84, 36 60, 36 38Z" fill="#f9d66c"/>
        <path d="M36 38 L104 38" stroke="#ff6b6b" stroke-width="6" stroke-linecap="round"/>
        <text x="70" y="132" text-anchor="middle" fill="#f7fffd" font-size="18" font-weight="800">Popcorn</text>
        <rect x="8" y="148" width="124" height="54" rx="18" fill="rgba(255,255,255,0.08)" stroke="rgba(255,255,255,0.15)"/>
        <text x="70" y="180" text-anchor="middle" fill="#f7fffd" font-size="17" font-weight="800">Familiefilm</text>
      </g>
      <rect x="20" y="212" width="368" height="62" rx="18" fill="rgba(255,255,255,0.08)" stroke="rgba(255,255,255,0.15)"/>
      <text x="44" y="248" fill="#f7fffd" font-size="18" font-weight="800">Ryddig visning av kinotidene</text>
      <text x="44" y="270" fill="rgba(247,255,253,0.76)" font-size="14">for folk som vil ha det enkelt</text>
    </g>
  </g>
</svg>